<svg width="0" height="0" class="hidden">
  <symbol fill="none" xmlns="http://www.w3.org/2000/svg" viewBox="0 0 16 16" id="create">
    <path d="M11.9724 6.95197V12.6623C11.9724 12.8253 11.9416 12.9868 11.8818 13.1374C11.8221 13.288 11.7344 13.4248 11.624 13.5401C11.5135 13.6554 11.3823 13.7468 11.238 13.8092C11.0937 13.8716 10.939 13.9037 10.7827 13.9037H3.64482C3.3293 13.9037 3.02671 13.7729 2.8036 13.5401C2.5805 13.3073 2.45516 12.9915 2.45516 12.6623V5.21404C2.45516 4.8848 2.5805 4.56905 2.8036 4.33625C3.02671 4.10344 3.3293 3.97266 3.64482 3.97266H8.6259" stroke="#CACACA" stroke-width="1.5" stroke-linecap="round" stroke-linejoin="round"></path>
    <path d="M14.231 1.65269C14.1875 1.60286 14.1348 1.56274 14.0761 1.53476C14.0173 1.50678 13.9538 1.49152 13.8892 1.48989C13.8247 1.48827 13.7605 1.50032 13.7005 1.52531C13.6406 1.5503 13.5861 1.58772 13.5404 1.63531L13.1725 2.01734C13.1279 2.0639 13.1028 2.12702 13.1028 2.19284C13.1028 2.25866 13.1279 2.32179 13.1725 2.36834L13.5097 2.71965C13.5318 2.74283 13.5581 2.76122 13.5871 2.77377C13.616 2.78632 13.647 2.79278 13.6784 2.79278C13.7097 2.79278 13.7407 2.78632 13.7697 2.77377C13.7986 2.76122 13.8249 2.74283 13.847 2.71965L14.2057 2.34724C14.3871 2.15824 14.4041 1.85038 14.231 1.65269ZM12.4286 2.7932L7.05972 8.38562C7.02717 8.41945 7.00351 8.46145 6.99102 8.50759L6.74268 9.27942C6.73673 9.30036 6.73631 9.32259 6.74146 9.34376C6.74661 9.36493 6.75714 9.38426 6.77194 9.39971C6.78675 9.41515 6.80527 9.42614 6.82556 9.43152C6.84585 9.43689 6.86715 9.43645 6.88722 9.43024L7.6263 9.17111C7.67051 9.15807 7.71076 9.13338 7.74318 9.09942L13.1026 3.49645C13.1522 3.44415 13.18 3.37356 13.18 3.3C13.18 3.22644 13.1522 3.15584 13.1026 3.10355L12.8066 2.7932C12.7565 2.74099 12.6885 2.71167 12.6176 2.71167C12.5468 2.71167 12.4788 2.74099 12.4286 2.7932V2.7932Z" fill="#CACACA"></path>
  </symbol>
  <symbol fill="none" xmlns="http://www.w3.org/2000/svg" viewBox="0 0 16 16" id="hart">
    <path d="M8.38658 13.9036C8.19555 13.9033 8.00901 13.8431 7.85123 13.7307C5.51386 12.075 4.50176 10.9398 3.94352 10.23C2.75386 8.71709 2.18431 7.16381 2.20037 5.48174C2.21911 3.55419 3.70112 1.98633 5.50405 1.98633C6.81504 1.98633 7.72305 2.75691 8.25185 3.39871C8.2686 3.41883 8.2893 3.43497 8.31254 3.44603C8.33579 3.45709 8.36103 3.46281 8.38658 3.46281C8.41213 3.46281 8.43737 3.45709 8.46062 3.44603C8.48386 3.43497 8.50456 3.41883 8.52131 3.39871C9.05011 2.75629 9.95811 1.98633 11.2691 1.98633C13.072 1.98633 14.554 3.55419 14.5728 5.48205C14.5888 7.16443 14.0187 8.71771 12.8296 10.2303C12.2714 10.9401 11.2593 12.0753 8.92192 13.731C8.76411 13.8433 8.57758 13.9034 8.38658 13.9036V13.9036Z" fill="#CACACA"></path>
  </symbol>
  <symbol fill="none" xmlns="http://www.w3.org/2000/svg" viewBox="0 0 16 16" id="trash">
    <g clip-path="url(#clip0_124_112)">
      <path d="M3.33103 3.47607L3.92586 13.4071C3.95411 13.9809 4.35414 14.4002 4.87758 14.4002H10.35C10.8755 14.4002 11.2681 13.9809 11.3017 13.4071L11.8965 3.47607" stroke="#CACACA" stroke-width="1.5" stroke-linecap="round" stroke-linejoin="round"></path>
      <path d="M2.37931 3.47607H12.8483Z" fill="#CACACA"></path>
      <path d="M2.37931 3.47607H12.8483" stroke="#CACACA" stroke-width="1.5" stroke-miterlimit="10" stroke-linecap="round"></path>
      <path d="M9.75517 5.46216L9.51724 12.4139M5.71034 3.47595V2.23458C5.71007 2.13668 5.72834 2.0397 5.76412 1.9492C5.79989 1.85871 5.85246 1.77649 5.9188 1.70726C5.98513 1.63804 6.06393 1.58319 6.15065 1.54586C6.23738 1.50853 6.33032 1.48946 6.42414 1.48975H8.80345C8.89726 1.48946 8.9902 1.50853 9.07693 1.54586C9.16365 1.58319 9.24245 1.63804 9.30879 1.70726C9.37512 1.77649 9.42769 1.85871 9.46347 1.9492C9.49924 2.0397 9.51751 2.13668 9.51724 2.23458V3.47595H5.71034ZM7.61379 5.46216V12.4139V5.46216ZM5.47241 5.46216L5.71034 12.4139L5.47241 5.46216Z" stroke="#CACACA" stroke-width="1.5" stroke-linecap="round" stroke-linejoin="round"></path>
    </g>
    <defs>
      <clipPath id="clip0_124_112">
        <rect width="15.2276" height="15.8897" fill="white"></rect>
      </clipPath>
    </defs>
  </symbol>
  <symbol fill="none" xmlns="http://www.w3.org/2000/svg" viewBox="0 0 16 16" id="view">
    <g clip-path="url(#clip0_124_106)">
      <path d="M7.68276 9.93091C8.73401 9.93091 9.58621 9.04165 9.58621 7.9447C9.58621 6.84775 8.73401 5.9585 7.68276 5.9585C6.63151 5.9585 5.77931 6.84775 5.77931 7.9447C5.77931 9.04165 6.63151 9.93091 7.68276 9.93091Z" fill="#CACACA"></path>
      <path d="M11.8115 4.38163C10.5112 3.45122 9.11957 2.97949 7.67562 2.97949C6.37622 2.97949 5.10954 3.38294 3.91066 4.1737C2.70167 4.97284 1.51648 6.42432 0.54483 7.94501C1.3306 9.31053 2.40545 10.7145 3.52492 11.5196C4.80915 12.4425 6.20551 12.9105 7.67562 12.9105C9.13295 12.9105 10.5263 12.4428 11.8186 11.5205C12.9562 10.7071 14.0388 9.30494 14.8207 7.94501C14.0361 6.59718 12.95 5.1966 11.8115 4.38163ZM7.68276 10.9243C7.11806 10.9243 6.56604 10.7496 6.09651 10.4222C5.62698 10.0948 5.26103 9.62954 5.04493 9.08514C4.82882 8.54074 4.77228 7.9417 4.88245 7.36378C4.99262 6.78585 5.26455 6.25498 5.66385 5.83832C6.06315 5.42166 6.5719 5.1379 7.12574 5.02295C7.67959 4.90799 8.25367 4.96699 8.77539 5.19249C9.2971 5.41798 9.74302 5.79985 10.0567 6.28979C10.3705 6.77974 10.5379 7.35576 10.5379 7.94501C10.5371 8.73489 10.236 9.49217 9.70072 10.0507C9.16545 10.6092 8.43973 10.9234 7.68276 10.9243V10.9243Z" fill="#CACACA"></path>
    </g>
    <defs>
      <clipPath id="clip0_124_106">
        <rect width="15.2276" height="15.8897" fill="white" transform="translate(0.0689697)"></rect>
      </clipPath>
    </defs>
  </symbol>
</svg>